<?xml version="1.0" encoding="utf-8"?>
<!-- Generator: Adobe Illustrator 17.0.0, SVG Export Plug-In . SVG Version: 6.00 Build 0)  -->
<!DOCTYPE svg PUBLIC "-//W3C//DTD SVG 1.1//EN" "http://www.w3.org/Graphics/SVG/1.1/DTD/svg11.dtd">
<svg version="1.1" id="Layer_1" xmlns="http://www.w3.org/2000/svg" xmlns:xlink="http://www.w3.org/1999/xlink" x="0px" y="0px"
	 width="2000px" fill="#FFFFFF" height="2000px" viewBox="0 0 2000 2000" enable-background="new 0 0 2000 2000" xml:space="preserve">
<g>
	<path d="M401.331,1369.706c-12.178-0.138-46.684-0.138-103.511,0c-4.76,0-8.12,0.072-10.078,0.21
		c-3.92,0.42-6.65,1.332-8.188,2.729c-1.542,1.542-2.451,4.13-2.729,7.769c-0.42,9.658-0.42,19.248,0,28.765
		c0.279,3.92,1.26,6.719,2.939,8.398c1.68,1.542,4.688,2.451,9.028,2.729c1.958,0.141,5.318,0.21,10.078,0.21
		c4.337,0.141,7.769,0.282,10.288,0.42c5.177,0.561,8.818,1.89,10.918,3.989s3.359,5.741,3.779,10.918
		c0.138,1.962,0.21,6.509,0.21,13.647v98.262c0,49.971,0,83.286,0,99.941c0,6.581,0.138,11.128,0.42,13.647
		c0.558,6.44,3.638,9.8,9.238,10.078c10.216,0.42,20.924,0.348,32.124-0.21c5.177-0.278,8.047-3.218,8.608-8.818
		c0.279-3.779,0.42-9.448,0.42-17.007c0-24.355,0-56.27,0-95.742l0.21-95.742c0-8.257,0-13.365,0-15.327
		c0.558-6.437,2.027-10.918,4.409-13.438c2.52-2.52,6.998-3.989,13.438-4.409c1.958-0.138,5.039-0.21,9.238-0.21
		c4.058,0,7.208-0.138,9.448-0.42c3.638-0.279,6.227-1.188,7.769-2.729c1.397-1.539,2.237-4.199,2.52-7.979
		c0.279-3.779,0.42-10.006,0.42-18.687c-0.141-10.078-1.191-16.095-3.149-18.057
		C417.216,1370.687,411.268,1369.706,401.331,1369.706z"/>
	<path d="M544.957,1441.573c-7.203-6.862-14.743-11.14-22.618-12.828c-10.578-2.25-22.786-2.363-36.627-0.337
		c-4.164,0.675-8.271,2.476-12.321,5.401c-19.806,14.405-29.482,31.846-29.031,52.325c0,2.025,0,23.351,0,63.97v65.151
		c0,10.916,2.025,20.145,6.076,27.682c11.027,20.705,28.243,31.395,51.649,32.069c22.955,0.675,41.239-9.958,54.856-31.9
		c1.798-3.149,2.98-6.076,3.544-8.777c2.363-14.402,3.544-23.348,3.544-26.837c0-22.28,0-60.426,0-114.438
		c0-9.114-1.577-18.904-4.726-29.369C556.941,1455.809,552.157,1448.438,544.957,1441.573z M520.652,1608.334
		c0,5.628-0.733,10.072-2.194,13.334c-3.039,6.865-8.384,10.186-16.035,9.959c-7.653-0.111-12.828-3.714-15.528-10.803
		c-1.239-2.925-1.856-7.875-1.856-14.854v-112.58c0-5.288,0.168-8.888,0.506-10.803c1.237-8.888,6.414-13.672,15.528-14.347
		c9.225-0.786,15.191,2.982,17.892,11.309c1.013,3.489,1.574,7.484,1.688,11.983
		C520.652,1511.002,520.652,1549.934,520.652,1608.334z"/>
	<path d="M702.273,1479.212c-1.801-20.93-11.646-35.614-29.538-44.053c-9.79-4.5-19.917-6.751-30.382-6.751
		c-1.688,0-8.271-0.056-19.748-0.169c-7.991,0-14.574,0.058-19.748,0.169c-8.777,0-13.954,0.789-15.528,2.363
		c-1.577,1.577-2.363,6.583-2.363,15.022c0,42.197,0,111.795,0,208.79c0,4.164,0.168,7.371,0.506,9.62
		c0.562,4.278,2.869,6.583,6.92,6.921c5.739,0.451,12.095,0.617,19.073,0.506c6.414-0.11,10.351-0.954,11.815-2.531
		c1.575-1.461,2.418-5.344,2.532-11.646c0-0.672,0-18.892,0-54.688c0-5.4,0.111-9.001,0.338-10.802
		c0.675-5.739,3.824-9.001,9.452-9.79c2.025-0.337,7.031-0.562,15.022-0.675c6.301-0.225,11.195-1.013,14.685-2.363
		c11.027-4.051,19.859-10.634,26.5-19.748c6.638-9.114,10.183-19.466,10.634-31.057c0-0.786,0-8.495,0-23.124h-0.169
		C702.273,1488.778,702.273,1480.115,702.273,1479.212z M663.453,1522.253c-1.013,6.751-4.22,12.097-9.621,16.034
		c-5.515,3.827-11.591,5.178-18.229,4.052c-5.965-1.013-9.114-4.275-9.452-9.79c0-1.688,0-10.803,0-27.344h-0.169
		c0-14.516,0-22.222,0-23.124c0.448-8.887,5.174-12.996,14.178-12.321c12.828,1.013,20.423,7.653,22.786,19.917
		C664.858,1499.581,665.027,1510.438,663.453,1522.253z"/>
	<path d="M851.221,1369.706c-12.178-0.138-46.684-0.138-103.511,0c-4.76,0-8.12,0.072-10.078,0.21
		c-3.92,0.42-6.65,1.332-8.188,2.729c-1.542,1.542-2.451,4.13-2.729,7.769c-0.42,9.658-0.42,19.248,0,28.765
		c0.279,3.92,1.26,6.719,2.939,8.398c1.68,1.542,4.688,2.451,9.028,2.729c1.958,0.141,5.318,0.21,10.078,0.21
		c4.337,0.141,7.769,0.282,10.288,0.42c5.177,0.561,8.818,1.89,10.918,3.989s3.359,5.741,3.779,10.918
		c0.138,1.962,0.21,6.509,0.21,13.647v98.262c0,49.971,0,83.286,0,99.941c0,6.581,0.138,11.128,0.42,13.647
		c0.558,6.44,3.638,9.8,9.238,10.078c10.216,0.42,20.924,0.348,32.124-0.21c5.177-0.278,8.047-3.218,8.608-8.818
		c0.279-3.779,0.42-9.448,0.42-17.007c0-24.355,0-56.27,0-95.742l0.21-95.742c0-8.257,0-13.365,0-15.327
		c0.558-6.437,2.027-10.918,4.409-13.438c2.52-2.52,6.998-3.989,13.438-4.409c1.958-0.138,5.039-0.21,9.238-0.21
		c4.058,0,7.208-0.138,9.448-0.42c3.638-0.279,6.227-1.188,7.769-2.729c1.397-1.539,2.237-4.199,2.52-7.979
		c0.279-3.779,0.42-10.006,0.42-18.687c-0.141-10.078-1.191-16.095-3.149-18.057
		C867.105,1370.687,861.158,1369.706,851.221,1369.706z"/>
	<path d="M927.501,1429.758c-3.151-0.224-8.102-0.337-14.853-0.337c-8.667,0-13.785,0.789-15.36,2.363
		c-1.688,1.577-2.532,6.583-2.532,15.022c0,45.687,0,114.158,0,205.414c0,4.839,0.169,8.497,0.506,10.971
		c0.562,4.84,3.149,7.485,7.764,7.934c3.486,0.337,8.495,0.506,15.022,0.506c8.439,0,13.503-0.786,15.191-2.362
		c1.575-1.688,2.363-6.808,2.363-15.36c0-7.65,0-42.083,0-103.297v-100.767c0-5.738-0.113-9.79-0.337-12.152
		C934.814,1432.854,932.227,1430.209,927.501,1429.758z"/>
	<path d="M1073.34,1479.212c-1.802-20.93-11.646-35.614-29.538-44.053c-9.79-4.5-19.917-6.751-30.382-6.751
		c-1.688,0-8.271-0.056-19.748-0.169c-7.991,0-14.574,0.058-19.748,0.169c-8.777,0-13.954,0.789-15.528,2.363
		c-1.577,1.577-2.363,6.583-2.363,15.022c0,42.197,0,111.795,0,208.79c0,4.164,0.168,7.371,0.506,9.62
		c0.562,4.278,2.869,6.583,6.92,6.921c5.739,0.451,12.095,0.617,19.073,0.506c6.414-0.11,10.351-0.954,11.815-2.531
		c1.575-1.461,2.418-5.344,2.532-11.646c0-0.672,0-18.892,0-54.688c0-5.4,0.111-9.001,0.338-10.802
		c0.675-5.739,3.824-9.001,9.452-9.79c2.025-0.337,7.031-0.562,15.022-0.675c6.301-0.225,11.195-1.013,14.685-2.363
		c11.026-4.051,19.859-10.634,26.5-19.748c6.638-9.114,10.183-19.466,10.633-31.057c0-0.786,0-8.495,0-23.124h-0.168
		C1073.34,1488.778,1073.34,1480.115,1073.34,1479.212z M1034.518,1522.253c-1.013,6.751-4.22,12.097-9.621,16.034
		c-5.515,3.827-11.591,5.178-18.229,4.052c-5.965-1.013-9.114-4.275-9.452-9.79c0-1.688,0-10.803,0-27.344h-0.169
		c0-14.516,0-22.222,0-23.124c0.448-8.887,5.174-12.996,14.178-12.321c12.828,1.013,20.423,7.653,22.786,19.917
		C1035.924,1499.581,1036.093,1510.438,1034.518,1522.253z"/>
	<path d="M1222.286,1369.706c-12.178-0.138-46.684-0.138-103.511,0c-4.76,0-8.119,0.072-10.078,0.21
		c-3.92,0.42-6.649,1.332-8.188,2.729c-1.542,1.542-2.45,4.13-2.729,7.769c-0.42,9.658-0.42,19.248,0,28.765
		c0.279,3.92,1.26,6.719,2.939,8.398c1.68,1.542,4.688,2.451,9.028,2.729c1.959,0.141,5.318,0.21,10.078,0.21
		c4.337,0.141,7.769,0.282,10.288,0.42c5.177,0.561,8.818,1.89,10.918,3.989s3.359,5.741,3.779,10.918
		c0.138,1.962,0.21,6.509,0.21,13.647v98.262c0,49.971,0,83.286,0,99.941c0,6.581,0.138,11.128,0.42,13.647
		c0.558,6.44,3.639,9.8,9.238,10.078c10.216,0.42,20.924,0.348,32.124-0.21c5.177-0.278,8.048-3.218,8.608-8.818
		c0.279-3.779,0.42-9.448,0.42-17.007c0-24.355,0-56.27,0-95.742l0.21-95.742c0-8.257,0-13.365,0-15.327
		c0.558-6.437,2.027-10.918,4.409-13.438c2.52-2.52,6.998-3.989,13.438-4.409c1.959-0.138,5.039-0.21,9.238-0.21
		c4.059,0,7.208-0.138,9.448-0.42c3.639-0.279,6.227-1.188,7.769-2.729c1.397-1.539,2.237-4.199,2.52-7.979
		c0.279-3.779,0.42-10.006,0.42-18.687c-0.141-10.078-1.19-16.095-3.149-18.057
		C1238.171,1370.687,1232.224,1369.706,1222.286,1369.706z"/>
	<path d="M1366.082,1631.29c-2.14-0.225-5.797-0.393-10.972-0.506c-23.52-0.111-34.828-0.169-33.926-0.169
		c-5.628-0.111-9.511-1.237-11.646-3.376c-2.139-2.025-3.32-5.794-3.545-11.309c-0.45-10.689-0.45-20.196,0-28.525
		c0.448-7.537,2.025-12.321,4.727-14.347c2.025-1.461,6.301-2.194,12.828-2.194c10.127,0,17.833-0.11,23.123-0.338
		c4.95-0.337,7.538-2.924,7.765-7.764c0.448-7.313,0.562-14.571,0.337-21.773c-0.227-4.162-1.013-6.976-2.362-8.439
		c-1.464-1.351-4.22-2.137-8.271-2.363c-2.59-0.11-6.696-0.169-12.321-0.169c-5.291,0-9.342-0.055-12.153-0.168
		c-4.839-0.338-8.271-1.462-10.296-3.376c-2.025-2.025-3.096-5.401-3.207-10.127c-0.451-11.027-0.506-22.391-0.169-34.096
		c0.225-5.4,1.406-9.17,3.545-11.309c2.136-2.025,6.076-3.148,11.815-3.376c-1.127,0.114,10.183,0.114,33.926,0
		c5.175-0.11,8.777-0.279,10.803-0.506c4.388-0.448,6.751-2.756,7.089-6.92c0.448-3.938,0.617-8.888,0.506-14.854
		c0-7.537-0.844-12.095-2.531-13.671c-1.577-1.575-6.245-2.363-14.01-2.363c-22.73-0.111-47.655-0.111-74.772,0
		c-8.439,0-13.447,0.844-15.021,2.532c-1.577,1.577-2.363,6.696-2.363,15.36c0,6.865,0,41.353,0,103.467v97.896
		c0,6.414,0.056,10.523,0.169,12.322c0.337,3.826,1.292,6.472,2.869,7.933c1.461,1.464,4.22,2.363,8.271,2.7
		c1.123,0.114,2.925,0.169,5.401,0.169c38.82,0,63.801,0,74.941,0c3.6,0,6.751-0.224,9.452-0.675
		c4.274-0.562,6.638-2.925,7.089-7.089c0.899-8.326,0.899-16.935,0-25.824C1372.833,1633.99,1370.47,1631.741,1366.082,1631.29z"/>
	<path d="M1509.051,1547.909c-8.215-48.61-14.009-82.874-17.385-102.791c-0.451-2.812-0.902-5.064-1.351-6.751
		c-1.013-3.824-2.194-6.301-3.544-7.427c-1.351-1.124-3.883-1.799-7.596-2.025c-0.788,0-6.245,0-16.372,0v-0.169h-15.022
		c-5.628,0-9.452,0.789-11.478,2.363c-2.139,1.688-3.657,5.459-4.557,11.309c-0.564,3.151-7.54,43.884-20.93,122.202
		c-2.477,14.292-7.484,43.885-15.022,88.782c-0.788,4.952-1.239,8.102-1.35,9.452c-0.228,5.29,2.08,8.046,6.92,8.271
		c7.427,0.337,16.483,0.337,27.175,0c4.726-0.111,7.595-2.588,8.607-7.427c3.039-16.204,4.669-25.598,4.896-28.188
		c1.013-8.888,3.038-14.347,6.076-16.372c2.25-1.461,7.933-2.137,17.048-2.025c0.224,0,1.123,0.058,2.7,0.169
		c5.963,0.227,9.563,3.096,10.803,8.607c1.35,6.304,2.136,10.296,2.362,11.984c0.448,2.7,1.013,6.751,1.688,12.152
		c0.785,5.401,1.35,9.452,1.688,12.152c0.562,3.266,1.52,5.515,2.869,6.752c1.351,1.351,3.655,2.139,6.921,2.363
		c1.461,0.113,6.469,0.227,15.021,0.337c8.777,0.111,14.064-0.617,15.866-2.194c2.587-2.362,2.98-8.607,1.182-18.735
		C1522.103,1625.947,1516.364,1591.683,1509.051,1547.909z M1471.749,1574.24c-0.451,2.477-3.713,3.713-9.789,3.713
		c-6.752,0.113-10.128-1.182-10.128-3.882c0-1.123,0.056-2.643,0.169-4.558c1.237-14.516,3.149-25.091,5.739-31.731
		c0.562-1.237,1.574-2.025,3.038-2.363c1.688-0.448,3.148,0.338,4.389,2.363c1.013,1.801,1.629,3.489,1.856,5.063
		c0.11,0.564,0.786,4.502,2.025,11.815c1.123,6.076,1.912,10.633,2.363,13.672C1471.86,1571.597,1471.974,1573.565,1471.749,1574.24
		z"/>
	<path d="M1710.589,1429.758c-10.578-0.224-23.688-0.224-39.327,0c-5.178,0.113-8.329,2.87-9.452,8.271
		c-0.338,2.025-1.24,6.92-2.701,14.685c-1.239,5.965-2.194,10.86-2.869,14.685c-2.025,10.465-4.84,25.376-8.439,44.729
		c-3.826,20.592-6.583,35.503-8.271,44.729c-0.227,1.239-0.451,2.139-0.675,2.7c-1.24,2.7-2.869,3.995-4.896,3.882
		c-1.914-0.11-3.206-1.182-3.882-3.207c-1.464-4.161-2.363-7.199-2.7-9.114c-2.253-11.251-5.232-26.331-8.946-45.234
		c-4.388-22.391-7.371-37.526-8.945-45.404c-1.802-9.114-3.489-17.103-5.063-23.968c-0.902-4.388-3.376-6.583-7.427-6.583
		c-16.317-0.224-30.382-0.224-42.196,0c-4.165,0-6.527,2.252-7.09,6.751c-0.337,2.927-0.506,6.978-0.506,12.152
		c0,15.191,0,49.23,0,102.116v100.598c0,5.628,0.11,9.679,0.338,12.152c0.448,4.389,2.7,6.81,6.751,7.258
		c8.777,0.899,17.385,0.844,25.824-0.169c4.275-0.448,6.693-2.756,7.258-6.92c0.338-3.263,0.507-7.313,0.507-12.153
		c0.11-7.089,0.169-16.878,0.169-29.368c0-13.841,0-23.572,0-29.2c0-5.963,0.506-9.959,1.519-11.984
		c0.338-0.786,1.013-1.35,2.025-1.688c1.574-0.562,2.701-0.056,3.376,1.519c1.688,3.714,2.812,6.641,3.376,8.777
		c2.136,8.553,5.063,20.874,8.776,36.964c0.562,2.363,1.968,8.329,4.22,17.892c1.688,7.316,3.094,13.279,4.22,17.892
		c0.786,3.265,1.856,5.459,3.207,6.583c1.461,1.126,3.824,1.801,7.089,2.025c4.95,0.337,9.959,0.396,15.022,0.169
		c4.051-0.225,6.807-1.013,8.271-2.363c1.574-1.237,2.812-3.882,3.713-7.934c1.461-6.187,3.432-15.021,5.908-26.499
		c0.785-3.6,2.025-9.563,3.713-17.892c1.574-7.764,2.812-13.782,3.713-18.06c1.013-5.064,2.25-8.439,3.714-10.128
		c0.562-0.786,1.292-1.123,2.194-1.013c1.123,0,1.856,0.396,2.194,1.182c2.249,5.177,3.375,11.815,3.375,19.917
		c0,2.813,0,10.296,0,22.448c0,9.229,0.056,16.71,0.169,22.449c0,4.277,0.169,7.877,0.507,10.802
		c0.337,3.94,2.249,6.135,5.738,6.583c9.339,1.124,18.398,1.124,27.175,0c4.051-0.562,6.301-3.038,6.752-7.427
		c0.337-3.148,0.506-7.258,0.506-12.321c0-63.013,0-130.527,0-202.544c0-5.174-0.113-8.777-0.338-10.802
		C1717.733,1432.517,1715.201,1429.871,1710.589,1429.758z"/>
	<path d="M703.506,1371.464h-256c-5.523,0-10,4.477-10,10v25.333c0,5.523,4.477,10,10,10h256c5.523,0,10-4.477,10-10v-25.333
		C713.506,1375.941,709.029,1371.464,703.506,1371.464z"/>
	<path d="M1073.506,1371.464h-176c-5.523,0-10,4.477-10,10v25.333c0,5.523,4.477,10,10,10h176c5.523,0,10-4.477,10-10v-25.333
		C1083.506,1375.941,1079.029,1371.464,1073.506,1371.464z"/>
	<path d="M1713.506,1371.464h-443c-5.523,0-10,4.477-10,10v25.333c0,5.523,4.477,10,10,10h443c5.523,0,10-4.477,10-10v-25.333
		C1723.506,1375.941,1719.029,1371.464,1713.506,1371.464z"/>
	<path d="M877.241,625.536l-80.908-160.702l43.322,174.62l-96.842-151.636L803.65,657.16L691.927,516.119l77.701,162.283
		L644.199,549.393l93.651,153.649L600.095,587.285l108.653,143.427L560.031,629.43l122.508,131.78l-158.15-85.807l135.197,118.743
		l-166.017-69.384l146.508,104.432l-172.2-52.172l156.364,89.023l-176.608-34.362l164.625,72.592L433.06,888.107l171.163,55.473
		l-179.916,2.088l175.901,37.879l-178.804,20.143l178.804,20.145l-175.901,37.889l179.907,2.082l-171.154,55.475l179.192-16.184
		l-164.619,72.605l176.595-34.363l-156.356,89.012l172.185-52.183l-86.105,61.379c-71.519,24.84-133.864,55.473-183.982,90.521
		c204.907-85.273,416.827-128.526,630.071-128.526c213.25,0,425.136,43.264,630,128.53
		c-53.736-37.568-121.516-70.067-199.604-95.801l-78.673-56.093l172.199,52.172l-156.368-89.004l176.615,34.345l-164.63-72.594
		l179.198,16.184l-171.169-55.475l179.92-2.109l-175.899-37.869l178.797-20.138l-178.797-20.143l175.895-37.879l-179.907-2.088
		l171.159-55.469l-179.203,16.176l164.636-72.599l-176.606,34.358l156.374-88.992l-172.203,52.172l146.508-104.449l-166.02,69.373
		l135.208-118.718l-158.161,85.789l122.519-131.769l-148.71,101.294l108.642-143.433l-137.79,115.71l93.688-153.612
		l-125.432,129.005l77.699-162.29l-111.751,141.014l60.862-169.319l-96.845,151.64l43.324-174.628l-80.908,160.702l25.312-178.138
		l-64.116,168.118l7.02-179.782l-46.729,173.751l-11.14-179.578l-29.035,177.567l-29.061-177.567l-11.147,179.582l-46.725-173.755
		l7.053,179.782l-64.09-168.118L877.241,625.536z M995.919,632.622c204.937,0,371.075,166.147,371.075,371.067
		c0,44.397-7.829,86.957-22.145,126.41c-11.743-12.302-23.505-24.585-35.212-36.921c-16.293-17.168-32.724-34.223-47.506-52.745
		c-9.051-11.34-17.643-23.013-23.497-36.436c-2.808-6.437-4.278-13.147-4.731-20.16c-0.512-7.929-3.214-15.304-6.678-22.366
		c-5.84-11.906-13.694-22.45-22.439-32.355c-16.679-18.89-35.227-35.928-53.511-53.184c-16.882-15.933-34.75-30.816-51.962-46.406
		c-11.51-10.425-22.613-21.3-33.948-31.92c-2.693-2.523-5.441-5.035-8.424-7.192c-5.627-4.071-9.948-3.957-15.297,0.49
		c-7.771,6.461-12.632,14.864-14.9,24.622c-4.013,17.267,0.155,32.55,12.256,45.449c6.373,6.793,13.168,13.197,19.902,19.64
		c7.917,7.574,15.79,15.183,22.468,23.906c3.422,4.471,6.273,9.274,7.625,15.34c-4.764-0.587-9.211-1.134-13.535-1.666
		c-0.231,0.3-0.346,0.398-0.39,0.521c-0.048,0.133-0.091,0.327-0.03,0.432c15.522,26.712,31.054,53.418,46.739,80.388
		c-3.848,6.554-7.73,13.165-11.691,19.91c-46.336,24.449-92.725,48.925-139.523,73.617c1.085,0.758,1.638,1.232,2.265,1.568
		c21.11,11.318,42.174,22.725,63.364,33.891c13.088,6.896,26.569,12.967,40.754,17.309c11.494,3.518,23.208,5.819,35.294,5.634
		c17.741-0.272,33.992-5.567,49.065-14.751c9.646-5.877,18.313-13.01,26.594-20.645c0.698-0.643,1.449-1.227,2.183-1.831
		c-1.442,2.281-2.758,4.657-4.376,6.805c-8.244,10.945-17.521,20.9-29.385,27.972c-6.072,3.619-12.597,6.481-18.944,9.629
		c-1.435,0.712-2.985,1.192-4.67,1.852c0.831,1.675,2.246,1.448,3.453,1.633c11.233,1.724,22.45,3.439,33.382,6.749
		c9.84,2.979,18.647,7.564,26.539,13.613c-62.58-8.009-128.295-12.292-196.092-12.292c-113.02,0-220.292,11.86-316.839,33.119
		c-36.866-57.642-58.31-126.117-58.31-199.626C624.842,798.77,790.982,632.622,995.919,632.622z"/>
	<path d="M282.279,973.858c7.554,9.261,16.831,16.043,28.964,19.634c5.052-35.958,3.482-71.23-3.709-106.371
		c-7.202-35.192-19.958-68.058-40.012-99.31c-1.921,6.545-3.459,11.786-4.997,17.027c-1.935,11.582-3.869,23.163-5.804,34.745
		c-0.372,4.171-0.854,8.336-1.097,12.515c-1.373,23.602-0.583,47.097,4.333,70.294C263.905,941.027,270.008,958.814,282.279,973.858
		z"/>
	<path d="M572.78,464.646c4.203-2.498,8.401-5.03,12.418-7.811c38.51-26.658,68.151-61.181,89.8-102.537
		c4.849-9.263,7.981-19.424,11.904-29.172c-0.322-0.054-0.643-0.107-0.965-0.161c-1.553,0.813-3.057,1.743-4.667,2.423
		c-39.752,16.772-73.935,41.1-100.921,74.979c-10.68,13.408-18.444,28.34-20.23,45.759c-0.759,7.401-0.385,14.732,2.303,22.154
		C566.217,468.227,569.569,466.554,572.78,464.646z"/>
	<path d="M337.111,1289.159c15.043,9.582,31.233,14.211,49.448,10.089c-8.503-49.773-96.731-152.077-137.952-160.415
		c-0.119,0.29-0.366,0.601-0.325,0.869c0.169,1.12,0.396,2.234,0.651,3.338c7.841,33.934,20.704,65.751,40.057,94.818
		C302.163,1257.643,316.733,1276.179,337.111,1289.159z"/>
	<path d="M298.789,1137.648c9.143,6.563,19.028,11.121,30.666,10.477c4.604-46.843-54.953-165.748-92.44-184.546
		c-0.182,0.819-0.506,1.602-0.507,2.385c-0.006,5.678-0.098,11.361,0.115,17.032c1.32,35.181,7.299,69.402,21.675,101.786
		C267.545,1105.615,279.959,1124.132,298.789,1137.648z"/>
	<path d="M314.334,823.219c3.996,5.156,9.252,9.335,14.638,14.658c13.661-33.852,20.699-67.486,21.736-102.442
		c1.034-34.898-2.863-68.958-15.733-102.546c-1.01,1.413-1.327,1.778-1.558,2.191c-23.626,42.117-36.311,87.156-35.444,135.614
		C298.31,789.649,302.408,807.835,314.334,823.219z"/>
	<path d="M414.315,1283.007c9.911-10.177,14.505-23.006,17.498-36.44c3.988-17.905,4.268-36.127,3.786-54.388
		c-0.778-29.487-6.562-58.34-10.911-87.375c-0.125-0.834-0.623-1.612-0.993-2.532c-52.81,44.148-55.435,134.134-14.023,184.862
		C411.23,1285.758,412.877,1284.484,414.315,1283.007z"/>
	<path d="M381.568,693.541c39.755-57.433,56.426-120.122,49.84-188.928c-0.453-0.18-0.906-0.361-1.36-0.541
		c-1.224,1.275-2.482,2.519-3.666,3.83c-26.344,29.134-44.987,62.653-56.465,100.132c-4.891,15.97-7.443,32.353-5.344,49.117
		C366.267,670.686,371.113,682.858,381.568,693.541z"/>
	<path d="M396.17,924.886c9.307-23.159,17.337-46.835,25.677-70.374c2.356-6.649,3.861-13.599,5.855-20.767
		c-64.803,16.705-106.965,98.84-92.698,159.432c10.427-3.015,19.19-8.798,26.983-16.11
		C377.573,962.442,388.325,944.406,396.17,924.886z"/>
	<path d="M355.596,1141.349c11.101-6.057,18.682-15.492,24.847-26.201c11.78-20.464,17.786-42.976,21.399-65.963
		c3.457-21.995,5.156-44.269,7.475-66.436c0.457-4.37,0.221-8.813,0.311-13.602c-52.996,28.25-85.774,103.766-56.104,173.021
		C354.399,1141.827,355.035,1141.656,355.596,1141.349z"/>
	<path d="M550.005,400.348c-0.313,0.023-0.681-0.044-0.929,0.098c-0.845,0.486-1.669,1.015-2.462,1.582
		c-21.434,15.322-40.766,32.916-57.254,53.508c-18.644,23.284-33.022,48.66-36.868,78.834c-1.619,12.703,0.382,24.859,7.597,36.184
		C500.359,544.219,555.96,438.529,550.005,400.348z"/>
	<path d="M361.624,840.659c14.693-3.716,26.43-12.448,37.251-22.495c22.133-20.549,39.198-45.109,54.912-70.656
		c7.275-11.828,14.06-23.958,21.559-36.793c-2.736,0.115-4.311,0.096-5.867,0.26c-18.166,1.914-34.933,7.96-50.53,17.334
		c-20.679,12.429-36.683,29.648-48.606,50.314c-9.532,16.523-16.325,34.286-18.385,53.609
		C350.788,843.204,350.666,843.431,361.624,840.659z"/>
	<path d="M409.345,703.988c13.391,0.17,25.569-4.25,37.187-10.374c23.899-12.598,44.169-29.982,63.11-48.942
		c12.152-12.164,23.69-24.943,36.272-38.26c-60.458-11.637-129.996,34.94-144.748,96.751
		C403.931,703.454,406.635,703.953,409.345,703.988z"/>
	<path d="M476.145,585.105c6.356,1.062,11.725,2.342,17.163,2.795c16.436,1.37,31.895-2.937,46.936-8.965
		c25.891-10.375,49.092-25.493,71.863-41.305c8.263-5.738,16.255-11.865,25.319-18.51c-28.384-9.919-55.762-8.779-82.618,0.317
		C520.805,530.955,494.165,552.004,476.145,585.105z"/>
	<path d="M744.168,455.23c-50.338-31.853-131.545-17.381-168.587,31.312c0.471,0.386,0.901,0.846,1.422,1.144
		c1.546,0.885,3.09,1.791,4.704,2.54c12.688,5.887,26.123,6.223,39.687,5.05c26.515-2.294,51.572-10.359,76.11-20.075
		C712.906,469.102,727.986,462.189,744.168,455.23z"/>
	<path d="M648.226,423.937c2.22,0.206,3.924,0.469,5.634,0.506c18.576,0.402,36.43-3.479,53.962-9.199
		c33.172-10.822,63.771-26.973,93.304-45.283c8.354-5.179,16.49-10.709,25.701-16.714c-2.203-0.478-3.089-0.727-3.991-0.858
		c-19.434-2.816-38.891-2.613-58.211,0.604c-34.38,5.725-66.363,17.277-93.212,40.429
		C661.739,401.764,653.834,411.537,648.226,423.937z"/>
	<path d="M1688.757,993.493c12.133-3.591,21.41-10.374,28.964-19.634c12.271-15.044,18.374-32.831,22.323-51.465
		c4.916-23.197,5.706-46.692,4.333-70.294c-0.243-4.179-0.725-8.344-1.097-12.515c-1.935-11.582-3.869-23.163-5.804-34.745
		c-1.538-5.241-3.076-10.482-4.997-17.027c-20.054,31.252-32.81,64.118-40.012,99.31
		C1685.275,922.263,1683.706,957.534,1688.757,993.493z"/>
	<path d="M1414.802,456.835c4.017,2.781,8.215,5.313,12.418,7.811c3.212,1.909,6.563,3.582,10.359,5.634
		c2.688-7.422,3.062-14.753,2.303-22.154c-1.785-17.419-9.55-32.351-20.23-45.759c-26.986-33.879-61.169-58.207-100.921-74.979
		c-1.61-0.679-3.114-1.609-4.667-2.423c-0.322,0.054-0.644,0.107-0.965,0.161c3.922,9.748,7.055,19.909,11.904,29.172
		C1346.651,395.654,1376.292,430.177,1414.802,456.835z"/>
	<path d="M1613.44,1299.249c18.215,4.122,34.406-0.508,49.448-10.089c20.379-12.98,34.948-31.516,48.121-51.301
		c19.353-29.066,32.215-60.884,40.057-94.818c0.255-1.104,0.482-2.218,0.651-3.338c0.041-0.268-0.206-0.579-0.325-0.869
		C1710.171,1147.171,1621.944,1249.476,1613.44,1299.249z"/>
	<path d="M1763.493,965.964c-0.001-0.783-0.325-1.566-0.507-2.385c-37.487,18.798-97.044,137.703-92.44,184.546
		c11.638,0.644,21.523-3.914,30.666-10.477c18.829-13.517,31.243-32.034,40.491-52.866c14.376-32.384,20.355-66.605,21.675-101.786
		C1763.59,977.325,1763.499,971.642,1763.493,965.964z"/>
	<path d="M1671.029,837.877c5.386-5.323,10.641-9.503,14.638-14.658c11.925-15.384,16.023-33.57,16.362-52.526
		c0.867-48.458-11.818-93.496-35.444-135.614c-0.232-0.413-0.548-0.778-1.558-2.191c-12.87,33.588-16.767,67.648-15.733,102.546
		C1650.33,770.391,1657.368,804.025,1671.029,837.877z"/>
	<path d="M1576.306,1102.271c-0.371,0.92-0.868,1.698-0.993,2.532c-4.349,29.035-10.132,57.887-10.911,87.375
		c-0.482,18.261-0.202,36.484,3.786,54.388c2.992,13.435,7.587,26.264,17.498,36.44c1.438,1.477,3.085,2.751,4.644,4.127
		C1631.74,1236.405,1629.115,1146.419,1576.306,1102.271z"/>
	<path d="M1635.427,657.152c2.099-16.764-0.454-33.147-5.344-49.117c-11.478-37.48-30.12-70.998-56.465-100.132
		c-1.185-1.31-2.443-2.555-3.666-3.83c-0.453,0.18-0.906,0.361-1.36,0.541c-6.586,68.805,10.085,131.495,49.84,188.928
		C1628.887,682.858,1633.733,670.686,1635.427,657.152z"/>
	<path d="M1572.298,833.745c1.994,7.168,3.5,14.118,5.855,20.767c8.34,23.538,16.37,47.215,25.677,70.374
		c7.845,19.52,18.597,37.556,34.183,52.181c7.793,7.312,16.556,13.095,26.983,16.11
		C1679.263,932.584,1637.101,850.45,1572.298,833.745z"/>
	<path d="M1644.404,1141.349c0.562,0.307,1.198,0.478,2.072,0.819c29.67-69.254-3.108-144.771-56.104-173.021
		c0.091,4.789-0.146,9.232,0.311,13.602c2.319,22.167,4.018,44.441,7.475,66.436c3.613,22.987,9.619,45.498,21.399,65.963
		C1625.721,1125.857,1633.302,1135.292,1644.404,1141.349z"/>
	<path d="M1539.912,570.554c7.215-11.325,9.217-23.481,7.597-36.184c-3.846-30.174-18.224-55.55-36.868-78.834
		c-16.489-20.592-35.821-38.185-57.254-53.508c-0.793-0.567-1.618-1.096-2.462-1.582c-0.248-0.142-0.615-0.076-0.929-0.098
		C1444.04,438.529,1499.641,544.219,1539.912,570.554z"/>
	<path d="M1581.05,728.31c-15.597-9.374-32.364-15.42-50.53-17.334c-1.556-0.164-3.131-0.145-5.867-0.26
		c7.499,12.835,14.284,24.965,21.559,36.793c15.714,25.547,32.779,50.106,54.912,70.656c10.821,10.047,22.558,18.779,37.251,22.495
		c10.959,2.771,10.836,2.545,9.666-8.426c-2.061-19.323-8.853-37.087-18.385-53.609
		C1617.733,757.958,1601.729,740.739,1581.05,728.31z"/>
	<path d="M1454.087,606.411c12.582,13.317,24.12,26.096,36.272,38.26c18.941,18.96,39.211,36.344,63.11,48.942
		c11.618,6.124,23.796,10.545,37.187,10.374c2.71-0.034,5.413-0.534,8.179-0.825
		C1584.082,641.352,1514.545,594.775,1454.087,606.411z"/>
	<path d="M1362.573,519.121c9.064,6.645,17.056,12.772,25.319,18.51c22.771,15.812,45.972,30.93,71.863,41.305
		c15.042,6.027,30.5,10.335,46.936,8.965c5.438-0.453,10.807-1.733,17.163-2.795c-18.02-33.101-44.66-54.15-78.663-65.667
		C1418.336,510.342,1390.958,509.202,1362.573,519.121z"/>
	<path d="M1418.293,490.225c1.614-0.749,3.157-1.655,4.704-2.54c0.522-0.299,0.951-0.759,1.422-1.144
		c-37.042-48.693-118.249-63.165-168.587-31.312c16.182,6.959,31.262,13.872,46.664,19.971c24.539,9.716,49.595,17.781,76.11,20.075
		C1392.17,496.449,1405.605,496.112,1418.293,490.225z"/>
	<path d="M1292.179,415.244c17.531,5.719,35.386,9.601,53.962,9.199c1.709-0.037,3.414-0.3,5.634-0.506
		c-5.609-12.399-13.513-22.173-23.187-30.514c-26.849-23.151-58.831-34.704-93.212-40.429c-19.32-3.217-38.777-3.421-58.211-0.604
		c-0.903,0.131-1.788,0.38-3.991,0.858c9.211,6.005,17.348,11.534,25.701,16.714
		C1228.408,388.272,1259.007,404.422,1292.179,415.244z"/>
	<path d="M892.253,866.936c-20.029-39.271-40.096-77.911-60.029-117.104c1.171-0.23,2.081-0.507,3.006-0.575
		c4.567-0.339,9.137-0.659,13.709-0.918c7.083-0.402,14.175-0.667,21.253-1.139c10.905-0.728,21.802-1.591,32.703-2.378
		c4.273-0.308,8.548-0.586,12.825-0.842c11.358-0.679,22.718-1.344,34.078-1.996c0.726-0.042,1.462,0.072,2.649,0.14
		c41.791,75.014,83.657,150.161,125.798,225.803c-31.933,13.719-63.39,27.234-94.847,40.749c5.302,2.56,10.699,4.391,14.969,8.313
		c4.403,4.045,6.84,9.159,8.319,14.865c1.43,5.517,1.796,11.12,1.207,16.721c-0.612,5.825-3.638,10.709-6.907,15.62
		c1.286-0.599,2.6-1.145,3.853-1.806c20.922-11.042,41.835-22.101,62.752-33.151c10.72-5.663,21.478-11.254,32.135-17.032
		c1.875-1.017,3.538-2.625,4.939-4.266c1.81-2.12,3.257-4.549,5.139-7.243c-54.969-97.353-109.98-194.781-165.158-292.504
		c-2.897,0-5.822-0.075-8.742,0.014c-7.685,0.234-15.367,0.553-23.05,0.814c-18.471,0.627-36.943,1.234-55.414,1.863
		c-7.239,0.246-14.477,0.541-21.716,0.794c-9.31,0.325-18.62,0.621-27.93,0.958c-1.167,0.042-2.328,0.253-3.807,0.422
		c-3.341,5.135-6.712,10.317-10.177,15.643c23.977,45.963,47.889,91.802,71.667,137.384
		C874.453,866.369,882.969,866.64,892.253,866.936z"/>
	<path d="M980.845,1017.976c-4.846-1.561-9.827-2.015-12.842-1.851c-12.004,0.151-21.792,1.769-31.373,4.198
		c-18.468,4.682-28.559,27.57-19.297,44.003c4.504,7.99,11.541,12.363,20.341,13.332c18.09,1.991,34.543-2.91,49.314-13.356
		c15.097-10.676,11.773-28.847,5.335-38.39C989.584,1021.852,985.47,1019.466,980.845,1017.976z"/>
	<path d="M948.632,992.542c6.537-4.988,10.221-11.36,9.94-19.735c-0.109-3.24-0.049-6.525-0.586-9.702
		c-1.38-8.165-6.411-13.356-13.985-16.357c-7.025-2.783-14.425-2.843-22.34-3.383c-5.344,0.488-11.227,0.966-17.096,1.577
		c-6.993,0.729-12.509,4.329-17.07,9.413c-7.058,7.866-9.86,17.28-8.02,27.558c1.919,10.719,8.783,17.419,19.313,20.325
		c9.541,2.633,19.019,1.659,28.472-0.443C934.968,1000.081,942.259,997.404,948.632,992.542z"/>
	<path d="M881.775,933.047c10.526,0.119,19.909-1.447,28.706-5.799c8.302-4.106,13.107-10.697,14.366-19.935
		c0.541-3.973,0.932-7.844,0.09-11.864c-1.468-7.012-5.328-12.047-11.596-15.335c-5.297-2.778-11.008-4.308-16.883-5.054
		c-5.997-0.762-12.037-1.219-18.069-1.667c-18.267-1.356-30.969,13.261-32.985,27.163c-2.596,17.904,8.762,27.365,20.516,30.6
		C871.369,932.656,876.918,933.336,881.775,933.047z"/>
	<path d="M822.825,802.753c-5.15,3.809-7.881,8.519-9.306,14.067c-1.466,5.712-0.546,11.263,2.213,16.285
		c7.024,12.782,18.18,19.134,33.643,20.481C840.26,836.134,831.627,819.605,822.825,802.753z"/>
	<path d="M941.447,1011.684c7.742-1.061,15.263-2.092,23.419-3.209c-2.315-4.563-4.241-8.36-6.135-12.095
		c-6.551,3.502-12.845,6.867-19.644,10.501C939.769,1008.271,940.572,1009.904,941.447,1011.684z"/>
	<path d="M908.613,937.196c3.863-0.242,6.802-0.498,9.747-0.592c2.911-0.092,5.828-0.02,9.594-0.02
		c-1.52-2.963-2.623-5.114-3.761-7.333C919.092,931.852,914.309,934.291,908.613,937.196z"/>
	<polygon points="1016.466,1261.369 1000.008,1228.022 983.55,1261.369 946.749,1266.717 973.378,1292.674 967.092,1329.327 
		1000.008,1312.022 1032.924,1329.327 1026.637,1292.674 1053.267,1266.717 	"/>
	<polygon points="901.822,1303.89 920.303,1285.876 894.763,1282.165 883.341,1259.022 871.919,1282.165 846.38,1285.876 
		864.86,1303.89 860.498,1329.327 883.341,1317.317 906.185,1329.327 	"/>
	<polygon points="1116.675,1317.317 1139.518,1329.327 1135.155,1303.89 1153.636,1285.876 1128.096,1282.165 1116.675,1259.022 
		1105.253,1282.165 1079.713,1285.876 1098.194,1303.89 1093.831,1329.327 	"/>
</g>
</svg>
