<svg id="Capa_1" enable-background="new 0 0 512 512" height="512" viewBox="0 0 512 512" width="512" xmlns="http://www.w3.org/2000/svg"><path d="m156.29 121h-78.79c-5.36 0-10.32-2.86-13-7.51l-9.39-16.3c-16.62 20.94-29.7 44.12-38.94 68.81h13.33c5.36 0 10.32 2.86 13 7.51l38.87 67.49h79.26l34.32-59.59zm-.46 300h-69.66l-9.96 17.3c29.4 29.02 64.62 50.07 103.02 62.07l11.16-19.37zm270 0h-69.66l-34.56 60 11.16 19.37c38.4-12 73.62-33.05 103.02-62.07zm31.06-323.81-9.39 16.3c-2.68 4.65-7.64 7.51-13 7.51h-78.79l-38.66 60.41 34.32 59.59h79.26l38.87-67.49c2.68-4.65 7.64-7.51 13-7.51h13.33c-9.24-24.68-22.32-47.87-38.94-68.81zm-124.12-85.56-11.16 19.37 34.56 60h69.66l9.96-17.3c-29.4-29.02-64.62-50.07-103.02-62.07zm-41.47 26.86c-2.67-4.64-2.67-10.34 0-14.98l11.14-19.34c-15.16-2.76-30.69-4.17-46.44-4.17s-31.28 1.41-46.44 4.18l11.14 19.33c2.67 4.64 2.67 10.34 0 14.98l-38.65 67.1 38.66 60.41h70.58l38.66-60.41zm191.2 307.51c-5.36 0-10.32-2.86-13-7.51l-38.87-67.49h-79.26l-34.32 59.59 38.66 60.41h78.79c5.36 0 10.32 2.86 13 7.51l9.39 16.3c16.62-20.94 29.7-44.12 38.94-68.81zm22.48-150h-13.81l-34.56 60 34.56 60h13.81c4.64-19.42 7.02-39.52 7.02-60s-2.38-40.58-7.02-60zm-213.68 277.51 38.65-67.1-38.66-60.41h-70.58l-38.66 60.41 38.65 67.1c2.67 4.64 2.67 10.34 0 14.98l-11.14 19.34c15.16 2.76 30.69 4.17 46.44 4.17s31.28-1.41 46.44-4.18l-11.14-19.33c-2.67-4.64-2.67-10.34 0-14.98zm-130.67-202.51h-79.26l-38.87 67.49c-2.68 4.65-7.64 7.51-13 7.51h-13.33c9.24 24.68 22.32 47.87 38.94 68.81l9.39-16.3c2.68-4.65 7.64-7.51 13-7.51h78.79l38.66-60.41zm-139.8-75h-13.81c-4.64 19.42-7.02 39.52-7.02 60s2.38 40.58 7.02 60h13.81l34.56-60zm270 0h-69.66l-34.56 60 34.56 60h69.66l34.56-60zm-111.6-184.37c-38.4 12-73.62 33.06-103.03 62.07l9.97 17.3h69.66l34.56-60z"/></svg>